<svg width="71" height="20" viewBox="0 0 71 20" fill="none" xmlns="http://www.w3.org/2000/svg">
<path d="M4.434 16.114H10.414V19H0.794V0.852H4.434V16.114ZM21.1516 19.182C19.4529 19.182 17.8929 18.7833 16.4716 17.986C15.0503 17.1887 13.9236 16.088 13.0916 14.684C12.2596 13.2627 11.8436 11.6593 11.8436 9.874C11.8436 8.106 12.2596 6.52 13.0916 5.116C13.9236 3.69467 15.0503 2.58533 16.4716 1.788C17.8929 0.990666 19.4529 0.592 21.1516 0.592C22.8676 0.592 24.4276 0.990666 25.8316 1.788C27.2529 2.58533 28.3709 3.69467 29.1856 5.116C30.0176 6.52 30.4336 8.106 30.4336 9.874C30.4336 11.6593 30.0176 13.2627 29.1856 14.684C28.3709 16.088 27.2529 17.1887 25.8316 17.986C24.4103 18.7833 22.8503 19.182 21.1516 19.182ZM21.1516 15.932C22.2436 15.932 23.2056 15.6893 24.0376 15.204C24.8696 14.7013 25.5196 13.9907 25.9876 13.072C26.4556 12.1533 26.6896 11.0873 26.6896 9.874C26.6896 8.66067 26.4556 7.60333 25.9876 6.702C25.5196 5.78333 24.8696 5.08133 24.0376 4.596C23.2056 4.11067 22.2436 3.868 21.1516 3.868C20.0596 3.868 19.0889 4.11067 18.2396 4.596C17.4076 5.08133 16.7576 5.78333 16.2896 6.702C15.8216 7.60333 15.5876 8.66067 15.5876 9.874C15.5876 11.0873 15.8216 12.1533 16.2896 13.072C16.7576 13.9907 17.4076 14.7013 18.2396 15.204C19.0889 15.6893 20.0596 15.932 21.1516 15.932ZM45.7777 6.312C45.3617 5.54933 44.7897 4.96867 44.0617 4.57C43.3337 4.17133 42.4843 3.972 41.5137 3.972C40.439 3.972 39.4857 4.21467 38.6537 4.7C37.8217 5.18533 37.1717 5.87867 36.7037 6.78C36.2357 7.68133 36.0017 8.72133 36.0017 9.9C36.0017 11.1133 36.2357 12.1707 36.7037 13.072C37.189 13.9733 37.8563 14.6667 38.7057 15.152C39.555 15.6373 40.543 15.88 41.6697 15.88C43.0563 15.88 44.1917 15.516 45.0757 14.788C45.9597 14.0427 46.5403 13.0113 46.8177 11.694H40.5777V8.912H50.4057V12.084C50.163 13.3493 49.643 14.5193 48.8457 15.594C48.0483 16.6687 47.017 17.5353 45.7517 18.194C44.5037 18.8353 43.0997 19.156 41.5397 19.156C39.789 19.156 38.203 18.766 36.7817 17.986C35.3777 17.1887 34.2683 16.088 33.4537 14.684C32.6563 13.28 32.2577 11.6853 32.2577 9.9C32.2577 8.11467 32.6563 6.52 33.4537 5.116C34.2683 3.69467 35.3777 2.594 36.7817 1.814C38.203 1.01667 39.7803 0.618 41.5137 0.618C43.559 0.618 45.3357 1.12067 46.8437 2.126C48.3517 3.114 49.3917 4.50933 49.9637 6.312H45.7777ZM61.5227 19.182C59.824 19.182 58.264 18.7833 56.8427 17.986C55.4214 17.1887 54.2947 16.088 53.4627 14.684C52.6307 13.2627 52.2147 11.6593 52.2147 9.874C52.2147 8.106 52.6307 6.52 53.4627 5.116C54.2947 3.69467 55.4214 2.58533 56.8427 1.788C58.264 0.990666 59.824 0.592 61.5227 0.592C63.2387 0.592 64.7987 0.990666 66.2027 1.788C67.624 2.58533 68.742 3.69467 69.5567 5.116C70.3887 6.52 70.8047 8.106 70.8047 9.874C70.8047 11.6593 70.3887 13.2627 69.5567 14.684C68.742 16.088 67.624 17.1887 66.2027 17.986C64.7814 18.7833 63.2214 19.182 61.5227 19.182ZM61.5227 15.932C62.6147 15.932 63.5767 15.6893 64.4087 15.204C65.2407 14.7013 65.8907 13.9907 66.3587 13.072C66.8267 12.1533 67.0607 11.0873 67.0607 9.874C67.0607 8.66067 66.8267 7.60333 66.3587 6.702C65.8907 5.78333 65.2407 5.08133 64.4087 4.596C63.5767 4.11067 62.6147 3.868 61.5227 3.868C60.4307 3.868 59.46 4.11067 58.6107 4.596C57.7787 5.08133 57.1287 5.78333 56.6607 6.702C56.1927 7.60333 55.9587 8.66067 55.9587 9.874C55.9587 11.0873 56.1927 12.1533 56.6607 13.072C57.1287 13.9907 57.7787 14.7013 58.6107 15.204C59.46 15.6893 60.4307 15.932 61.5227 15.932Z" fill="black"/>
</svg>
